<svg xmlns="http://www.w3.org/2000/svg" width="100%" viewBox="0 0 571 147" fill="none"><path d="M503.535 103.736V55.5243H512.155V61.438C514.962 56.4264 519.372 54.1211 525.285 54.1211C531.901 54.1211 536.812 57.3285 539.117 62.741C542.225 56.9276 547.236 54.1211 553.551 54.1211C564.677 54.1211 570.791 60.8366 570.791 72.8644V103.736H561.168V73.3656C561.168 66.6501 557.961 62.9415 551.847 62.9415C546.134 62.9415 542.024 67.3517 542.024 73.6663V103.736H532.302V73.3656C532.302 66.6501 529.094 62.9415 523.181 62.9415C517.367 62.9415 513.258 67.3517 513.258 73.6663V103.736H503.535Z" fill="currentColor"></path><path d="M460.211 105.139C449.085 105.139 442.069 99.3257 442.069 90.1043C442.069 81.4844 447.882 75.27 459.71 74.5684L474.344 73.7665V71.0603C474.344 64.7457 471.236 62.1396 464.621 62.1396C458.206 62.1396 454.999 63.8436 454.197 68.9554H444.474C445.577 59.0325 452.393 54.1211 465.323 54.1211C476.849 54.1211 483.565 59.9345 483.565 70.5591V94.1136C483.565 95.2162 484.066 95.7173 485.169 95.7173H489.278V103.736H481.46C478.152 103.736 476.248 101.932 476.248 98.7243V97.321C473.441 102.232 467.728 105.139 460.211 105.139ZM451.791 89.8036C451.791 94.2138 455.4 97.1206 461.313 97.1206C469.131 97.1206 474.344 92.6101 474.344 84.3911V81.2839L460.912 82.2862C454.698 82.6872 451.791 85.8946 451.791 89.8036Z" fill="currentColor"></path><path d="M408.685 105.139C394.251 105.139 384.93 94.4143 384.93 79.7804C384.93 64.7457 394.752 54.1211 409.286 54.1211C421.514 54.1211 429.834 61.2376 430.936 71.361H421.013C420.111 66.8505 416.102 62.9415 409.186 62.9415C400.566 62.9415 394.953 69.4566 394.953 79.58C394.953 89.9039 400.666 96.3187 408.985 96.3187C415.5 96.3187 420.211 92.5099 421.214 86.8969H431.137C429.834 96.5192 421.815 105.139 408.685 105.139Z" fill="currentColor"></path><path d="M328.318 121.779V113.058H336.938C340.246 113.058 341.749 112.056 342.852 109.55L347.061 100.429L326.814 55.5254H337.94L352.173 89.504L366.406 55.5254H377.331L350.87 114.361C348.665 119.373 345.859 121.779 339.143 121.779H328.318Z" fill="currentColor"></path><path d="M312.223 103.737C305.407 103.737 302.5 101.131 302.5 94.6164V33.5752H312.223V91.6094C312.223 94.1152 313.125 95.2178 315.631 95.2178H321.745V103.737H312.223Z" fill="currentColor"></path><path d="M261.605 105.139C246.971 105.139 236.748 94.9155 236.748 79.58C236.748 64.3447 246.971 54.1211 261.605 54.1211C276.339 54.1211 286.463 64.3447 286.463 79.58C286.463 94.9155 276.339 105.139 261.605 105.139ZM246.771 79.58C246.771 89.6032 252.785 96.3187 261.605 96.3187C270.526 96.3187 276.439 89.6032 276.439 79.58C276.439 69.657 270.526 62.9415 261.605 62.9415C252.785 62.9415 246.771 69.657 246.771 79.58Z" fill="currentColor"></path><path d="M174.702 103.737V33.5752H203.769C218.403 33.5752 227.023 41.3933 227.023 54.223C227.023 67.1529 218.403 75.0712 203.769 75.0712H184.725V103.737H174.702ZM184.725 65.7496H203.368C211.988 65.7496 216.799 61.5399 216.799 54.223C216.799 47.1065 211.988 42.997 203.368 42.997H184.725V65.7496Z" fill="currentColor"></path><path d="M94.2094 88.0706L115.95 75.4877V33.5479L57.9773 0L0 33.5479V75.4877L57.9773 41.9349L79.7175 54.5178L57.9773 67.1007V109.036L123.198 146.779V104.845L94.2094 88.0706Z" fill="currentColor"></path></svg>